<svg width="16" height="16" viewBox="0 0 16 16" fill="none" xmlns="http://www.w3.org/2000/svg">
<path d="M8 15C11.866 15 15 11.866 15 8C15 4.13401 11.866 1 8 1C4.13401 1 1 4.13401 1 8C1 11.866 4.13401 15 8 15Z" stroke="black" stroke-linecap="round" stroke-linejoin="round"/>
<path d="M5.96304 5.89996C6.12762 5.43213 6.45245 5.03763 6.88001 4.78635C7.30757 4.53507 7.81027 4.44322 8.29907 4.52706C8.78786 4.6109 9.23121 4.86503 9.5506 5.24443C9.86998 5.62383 10.0448 6.10402 10.044 6.59996C10.044 7.99996 7.94404 8.69996 7.94404 8.69996" stroke="black" stroke-linecap="round" stroke-linejoin="round"/>
<path d="M8 11.5H8.007" stroke="black" stroke-linecap="round" stroke-linejoin="round"/>
</svg>
