<svg width="14" height="16" viewBox="0 0 14 16" fill="none" xmlns="http://www.w3.org/2000/svg">
<path d="M11.6667 7H2.33333C1.59695 7 1 7.65122 1 8.45455V13.5455C1 14.3488 1.59695 15 2.33333 15H11.6667C12.403 15 13 14.3488 13 13.5455V8.45455C13 7.65122 12.403 7 11.6667 7Z" stroke="black" stroke-linecap="round" stroke-linejoin="round"/>
<path d="M4 7V4.33333C4 3.44928 4.31607 2.60143 4.87868 1.97631C5.44129 1.35119 6.20435 1 7 1C7.79565 1 8.55871 1.35119 9.12132 1.97631C9.68393 2.60143 10 3.44928 10 4.33333V7" stroke="black" stroke-linecap="round" stroke-linejoin="round"/>
</svg>
