<svg width="163" height="38" viewBox="0 0 163 38" fill="none" xmlns="http://www.w3.org/2000/svg">
<path d="M34.888 29.32C33.1813 29.32 31.8907 28.84 31.016 27.88C30.1413 26.8987 29.704 25.5013 29.704 23.688V22.408H33.032V23.944C33.032 25.3947 33.64 26.12 34.856 26.12C35.4533 26.12 35.9013 25.9493 36.2 25.608C36.52 25.2453 36.68 24.6693 36.68 23.88C36.68 22.9413 36.4667 22.12 36.04 21.416C35.6133 20.6907 34.824 19.8267 33.672 18.824C32.2213 17.544 31.208 16.392 30.632 15.368C30.056 14.3227 29.768 13.1493 29.768 11.848C29.768 10.0773 30.216 8.712 31.112 7.752C32.008 6.77067 33.3093 6.28 35.016 6.28C36.7013 6.28 37.9707 6.77067 38.824 7.752C39.6987 8.712 40.136 10.0987 40.136 11.912V12.84H36.808V11.688C36.808 10.92 36.6587 10.3653 36.36 10.024C36.0613 9.66133 35.624 9.48 35.048 9.48C33.8747 9.48 33.288 10.1947 33.288 11.624C33.288 12.4347 33.5013 13.192 33.928 13.896C34.376 14.6 35.176 15.4533 36.328 16.456C37.8 17.736 38.8133 18.8987 39.368 19.944C39.9227 20.9893 40.2 22.216 40.2 23.624C40.2 25.4587 39.7413 26.8667 38.824 27.848C37.928 28.8293 36.616 29.32 34.888 29.32ZM47.3383 29.32C45.6316 29.32 44.3303 28.84 43.4343 27.88C42.5383 26.8987 42.0903 25.5013 42.0903 23.688V6.6H45.6102V23.944C45.6102 24.712 45.7596 25.2667 46.0583 25.608C46.3783 25.9493 46.8263 26.12 47.4023 26.12C47.9783 26.12 48.4156 25.9493 48.7143 25.608C49.0343 25.2667 49.1943 24.712 49.1943 23.944V6.6H52.5863V23.688C52.5863 25.5013 52.1383 26.8987 51.2423 27.88C50.3463 28.84 49.0449 29.32 47.3383 29.32ZM57.7508 6.6H62.5188L66.1668 29H62.6468L62.0068 24.552V24.616H58.0068L57.3668 29H54.1028L57.7508 6.6ZM61.5908 21.576L60.0228 10.504H59.9588L58.4227 21.576H61.5908ZM72.9995 6.6H82.5995V9.8H76.5195V15.72H81.3515V18.92H76.5195V25.8H82.5995V29H72.9995V6.6ZM84.6245 6.6H89.6485L91.8885 22.632H91.9525L94.1925 6.6H99.2165V29H95.8885V12.04H95.8245L93.2645 29H90.3205L87.7605 12.04H87.6965V29H84.6245V6.6ZM101.843 6.6H107.027C108.777 6.6 110.089 7.06933 110.963 8.008C111.838 8.94667 112.275 10.3227 112.275 12.136V14.344C112.275 16.1573 111.838 17.5333 110.963 18.472C110.089 19.4107 108.777 19.88 107.027 19.88H105.363V29H101.843V6.6ZM107.027 16.68C107.603 16.68 108.03 16.52 108.307 16.2C108.606 15.88 108.755 15.336 108.755 14.568V11.912C108.755 11.144 108.606 10.6 108.307 10.28C108.03 9.96 107.603 9.8 107.027 9.8H105.363V16.68H107.027ZM114.187 6.6H119.403C121.216 6.6 122.539 7.02667 123.371 7.88C124.203 8.712 124.619 10.0027 124.619 11.752V13.128C124.619 15.4533 123.851 16.9253 122.315 17.544V17.608C123.168 17.864 123.766 18.3867 124.107 19.176C124.47 19.9653 124.651 21.0213 124.651 22.344V26.28C124.651 26.92 124.672 27.4427 124.715 27.848C124.758 28.232 124.864 28.616 125.035 29H121.451C121.323 28.6373 121.238 28.296 121.195 27.976C121.152 27.656 121.131 27.08 121.131 26.248V22.152C121.131 21.128 120.96 20.4133 120.619 20.008C120.299 19.6027 119.734 19.4 118.923 19.4H117.707V29H114.187V6.6ZM118.987 16.2C119.691 16.2 120.214 16.0187 120.555 15.656C120.918 15.2933 121.099 14.6853 121.099 13.832V12.104C121.099 11.2933 120.95 10.7067 120.651 10.344C120.374 9.98133 119.926 9.8 119.307 9.8H117.707V16.2H118.987ZM127.093 6.6H136.693V9.8H130.613V15.72H135.445V18.92H130.613V25.8H136.693V29H127.093V6.6ZM143.357 29.32C141.65 29.32 140.359 28.84 139.485 27.88C138.61 26.8987 138.173 25.5013 138.173 23.688V22.408H141.501V23.944C141.501 25.3947 142.109 26.12 143.325 26.12C143.922 26.12 144.37 25.9493 144.669 25.608C144.989 25.2453 145.149 24.6693 145.149 23.88C145.149 22.9413 144.935 22.12 144.509 21.416C144.082 20.6907 143.293 19.8267 142.141 18.824C140.69 17.544 139.677 16.392 139.101 15.368C138.525 14.3227 138.237 13.1493 138.237 11.848C138.237 10.0773 138.685 8.712 139.581 7.752C140.477 6.77067 141.778 6.28 143.485 6.28C145.17 6.28 146.439 6.77067 147.293 7.752C148.167 8.712 148.605 10.0987 148.605 11.912V12.84H145.277V11.688C145.277 10.92 145.127 10.3653 144.829 10.024C144.53 9.66133 144.093 9.48 143.517 9.48C142.343 9.48 141.757 10.1947 141.757 11.624C141.757 12.4347 141.97 13.192 142.397 13.896C142.845 14.6 143.645 15.4533 144.797 16.456C146.269 17.736 147.282 18.8987 147.837 19.944C148.391 20.9893 148.669 22.216 148.669 23.624C148.669 25.4587 148.21 26.8667 147.293 27.848C146.397 28.8293 145.085 29.32 143.357 29.32ZM153.313 6.6H158.081L161.729 29H158.209L157.569 24.552V24.616H153.569L152.929 29H149.665L153.313 6.6ZM157.153 21.576L155.585 10.504H155.521L153.985 21.576H157.153Z" fill="#3B3D3F"/>
<path fill-rule="evenodd" clip-rule="evenodd" d="M8.99999 6L21 6L21 12L9 12L8.99999 6ZM2.14577e-06 30L0 6H6L6 30H2.14577e-06ZM21 21H9.00001V15H21V21ZM8.99999 24L21 24L21 30L9 30L8.99999 24Z" fill="#3B3D3F"/>
</svg>
